<svg width="698.5" height="480.70000000000005" xmlns="http://www.w3.org/2000/svg" xmlns:xlink="http://www.w3.org/1999/xlink"><line x1="104.25" y1="6.0" x2="92.5" y2="29.0" style="stroke:black; stroke-width:1px;" />
<line x1="92.5" y1="35.0" x2="13.0" y2="58.0" style="stroke:black; stroke-width:1px;" />
<line x1="13.0" y1="64.0" x2="13.0" y2="87.0" style="stroke:black; stroke-width:1px;" />
<line x1="92.5" y1="35.0" x2="39.0" y2="58.0" style="stroke:black; stroke-width:1px;" />
<line x1="92.5" y1="35.0" x2="55.5" y2="58.0" style="stroke:black; stroke-width:1px;" />
<line x1="92.5" y1="35.0" x2="71.0" y2="58.0" style="stroke:black; stroke-width:1px;" />
<line x1="92.5" y1="35.0" x2="86.5" y2="58.0" style="stroke:black; stroke-width:1px;" />
<line x1="92.5" y1="35.0" x2="102.0" y2="58.0" style="stroke:black; stroke-width:1px;" />
<line x1="92.5" y1="35.0" x2="117.5" y2="58.0" style="stroke:black; stroke-width:1px;" />
<line x1="92.5" y1="35.0" x2="133.0" y2="58.0" style="stroke:black; stroke-width:1px;" />
<line x1="92.5" y1="35.0" x2="148.5" y2="58.0" style="stroke:black; stroke-width:1px;" />
<line x1="92.5" y1="35.0" x2="172.0" y2="58.0" style="stroke:black; stroke-width:1px;" />
<line x1="172.0" y1="64.0" x2="148.0" y2="87.0" style="stroke:black; stroke-width:1px;" />
<line x1="172.0" y1="64.0" x2="172.0" y2="87.0" style="stroke:black; stroke-width:1px;" />
<line x1="172.0" y1="93.0" x2="92.5" y2="116.0" style="stroke:black; stroke-width:1px;" />
<line x1="92.5" y1="122.0" x2="92.5" y2="145.0" style="stroke:black; stroke-width:1px;" />
<line x1="172.0" y1="93.0" x2="118.5" y2="116.0" style="stroke:black; stroke-width:1px;" />
<line x1="172.0" y1="93.0" x2="135.0" y2="116.0" style="stroke:black; stroke-width:1px;" />
<line x1="172.0" y1="93.0" x2="150.5" y2="116.0" style="stroke:black; stroke-width:1px;" />
<line x1="172.0" y1="93.0" x2="166.0" y2="116.0" style="stroke:black; stroke-width:1px;" />
<line x1="172.0" y1="93.0" x2="181.5" y2="116.0" style="stroke:black; stroke-width:1px;" />
<line x1="172.0" y1="93.0" x2="197.0" y2="116.0" style="stroke:black; stroke-width:1px;" />
<line x1="172.0" y1="93.0" x2="212.5" y2="116.0" style="stroke:black; stroke-width:1px;" />
<line x1="172.0" y1="93.0" x2="228.0" y2="116.0" style="stroke:black; stroke-width:1px;" />
<line x1="172.0" y1="93.0" x2="251.5" y2="116.0" style="stroke:black; stroke-width:1px;" />
<line x1="251.5" y1="122.0" x2="251.5" y2="145.0" style="stroke:black; stroke-width:1px;" />
<line x1="172.0" y1="64.0" x2="196.0" y2="87.0" style="stroke:black; stroke-width:1px;" />
<line x1="104.25" y1="6.0" x2="116.0" y2="29.0" style="stroke:black; stroke-width:1px;" />
<rect x="66.0" y="58.0" width="10.0" height="12.0" style="fill:orange; stroke:rgb(0,0,0);" rx="1"/>
<text x="68" y="67" style="font-family:sans-serif;font-size:10px;">
1
</text>
<rect x="207.5" y="116.0" width="10.0" height="12.0" style="fill:orange; stroke:rgb(0,0,0);" rx="1"/>
<text x="209" y="125" style="font-family:sans-serif;font-size:10px;">
c
</text>
<rect x="162.5" y="116.0" width="7.0" height="12.0" style="fill:orange; stroke:rgb(0,0,0);" rx="1"/>
<text x="164" y="125" style="font-family:sans-serif;font-size:10px;">
,
</text>
<rect x="131.5" y="116.0" width="7.0" height="12.0" style="fill:orange; stroke:rgb(0,0,0);" rx="1"/>
<text x="133" y="125" style="font-family:sans-serif;font-size:10px;">
[
</text>
<rect x="112.5" y="116.0" width="12.0" height="12.0" style="fill:orange; stroke:rgb(0,0,0);" rx="1"/>
<text x="114" y="125" style="font-family:sans-serif;font-size:10px;">
U
</text>
<rect x="5.0" y="87.0" width="16.0" height="12.0" style="fill:orange; stroke:rgb(0,0,0);" rx="1"/>
<text x="7" y="96" style="font-family:sans-serif;font-size:10px;">
a1
</text>
<rect x="176.5" y="116.0" width="10.0" height="12.0" style="fill:orange; stroke:rgb(0,0,0);" rx="1"/>
<text x="178" y="125" style="font-family:sans-serif;font-size:10px;">
2
</text>
<rect x="193.5" y="116.0" width="7.0" height="12.0" style="fill:orange; stroke:rgb(0,0,0);" rx="1"/>
<text x="195" y="125" style="font-family:sans-serif;font-size:10px;">
,
</text>
<rect x="238.5" y="116.0" width="26.0" height="12.0" style="fill:orange; stroke:rgb(0,0,0);" rx="1"/>
<text x="240" y="125" style="font-family:sans-serif;font-size:10px;">
expr
</text>
<rect x="112.5" y="29.0" width="7.0" height="12.0" style="fill:orange; stroke:rgb(0,0,0);" rx="1"/>
<text x="114" y="38" style="font-family:sans-serif;font-size:10px;">
;
</text>
<rect x="52.0" y="58.0" width="7.0" height="12.0" style="fill:orange; stroke:rgb(0,0,0);" rx="1"/>
<text x="54" y="67" style="font-family:sans-serif;font-size:10px;">
[
</text>
<rect x="145.0" y="58.0" width="7.0" height="12.0" style="fill:orange; stroke:rgb(0,0,0);" rx="1"/>
<text x="147" y="67" style="font-family:sans-serif;font-size:10px;">
]
</text>
<rect x="144.0" y="87.0" width="8.0" height="12.0" style="fill:orange; stroke:rgb(0,0,0);" rx="1"/>
<text x="146" y="96" style="font-family:sans-serif;font-size:10px;">
(
</text>
<rect x="33.0" y="58.0" width="12.0" height="12.0" style="fill:orange; stroke:rgb(0,0,0);" rx="1"/>
<text x="35" y="67" style="font-family:sans-serif;font-size:10px;">
U
</text>
<rect x="79.5" y="116.0" width="26.0" height="12.0" style="fill:orange; stroke:rgb(0,0,0);" rx="1"/>
<text x="81" y="125" style="font-family:sans-serif;font-size:10px;">
expr
</text>
<rect x="84.5" y="145.0" width="16.0" height="12.0" style="fill:orange; stroke:rgb(0,0,0);" rx="1"/>
<text x="86" y="154" style="font-family:sans-serif;font-size:10px;">
a2
</text>
<rect x="243.5" y="145.0" width="16.0" height="12.0" style="fill:orange; stroke:rgb(0,0,0);" rx="1"/>
<text x="245" y="154" style="font-family:sans-serif;font-size:10px;">
a3
</text>
<rect x="145.5" y="116.0" width="10.0" height="12.0" style="fill:orange; stroke:rgb(0,0,0);" rx="1"/>
<text x="147" y="125" style="font-family:sans-serif;font-size:10px;">
1
</text>
<rect x="128.0" y="58.0" width="10.0" height="12.0" style="fill:orange; stroke:rgb(0,0,0);" rx="1"/>
<text x="130" y="67" style="font-family:sans-serif;font-size:10px;">
b
</text>
<rect x="114.0" y="58.0" width="7.0" height="12.0" style="fill:orange; stroke:rgb(0,0,0);" rx="1"/>
<text x="116" y="67" style="font-family:sans-serif;font-size:10px;">
,
</text>
<rect x="192.0" y="87.0" width="8.0" height="12.0" style="fill:orange; stroke:rgb(0,0,0);" rx="1"/>
<text x="194" y="96" style="font-family:sans-serif;font-size:10px;">
)
</text>
<rect x="78.25" y="0.0" width="52.0" height="12.0" style="fill:orange; stroke:rgb(0,0,0);" rx="1"/>
<text x="80" y="9" style="font-family:sans-serif;font-size:10px;">
statement
</text>
<rect x="79.5" y="29.0" width="26.0" height="12.0" style="fill:orange; stroke:rgb(0,0,0);" rx="1"/>
<text x="81" y="38" style="font-family:sans-serif;font-size:10px;">
expr
</text>
<rect x="97.0" y="58.0" width="10.0" height="12.0" style="fill:orange; stroke:rgb(0,0,0);" rx="1"/>
<text x="99" y="67" style="font-family:sans-serif;font-size:10px;">
2
</text>
<rect x="159.0" y="58.0" width="26.0" height="12.0" style="fill:orange; stroke:rgb(0,0,0);" rx="1"/>
<text x="161" y="67" style="font-family:sans-serif;font-size:10px;">
expr
</text>
<rect x="0.0" y="58.0" width="26.0" height="12.0" style="fill:orange; stroke:rgb(0,0,0);" rx="1"/>
<text x="2" y="67" style="font-family:sans-serif;font-size:10px;">
expr
</text>
<rect x="159.0" y="87.0" width="26.0" height="12.0" style="fill:orange; stroke:rgb(0,0,0);" rx="1"/>
<text x="161" y="96" style="font-family:sans-serif;font-size:10px;">
expr
</text>
<rect x="224.5" y="116.0" width="7.0" height="12.0" style="fill:orange; stroke:rgb(0,0,0);" rx="1"/>
<text x="226" y="125" style="font-family:sans-serif;font-size:10px;">
]
</text>
<rect x="83.0" y="58.0" width="7.0" height="12.0" style="fill:orange; stroke:rgb(0,0,0);" rx="1"/>
<text x="85" y="67" style="font-family:sans-serif;font-size:10px;">
,
</text>
</svg>